# xmcd
#
# Track frame offsets:
#	150
#	19870
#	40231
#	58598
#	81565
#	101505
#	120348
#	137860
#	156519
#	178614
#	202778
#	221437
#	236743
#	256557
#
# Disc length: 3533 seconds
#
# Revision: 0
# Processed by: cddbd v1.5.2PL0 Copyright (c) Steve Scherf et al.
# Submitted via: EasyCDDAExtractor 9.1.3.1
#
DISCID=bb0dcb0e
DTITLE=Elli Kokkinou - Sto kokkino
DYEAR=2003
DGENRE=Acid
TTITLE0=01. Masai
TTITLE1=02. Den ginete
TTITLE2=03. Sorry
TTITLE3=04. Apokalypsh
TTITLE4=05. Eimai kala
TTITLE5=06. Agori mou
TTITLE6=07. 8elw tosa na sou pw
TTITLE7=08. Losmo8eoria
TTITLE8=09. Kainouria arxh
TTITLE9=10. Fila me
TTITLE10=11. Xartaetos
TTITLE11=12. Erwta mou
TTITLE12=13. Ayto to kalokairi
TTITLE13=14. Outro
EXTD=
EXTT0=
EXTT1=
EXTT2=
EXTT3=
EXTT4=
EXTT5=
EXTT6=
EXTT7=
EXTT8=
EXTT9=
EXTT10=
EXTT11=
EXTT12=
EXTT13=
PLAYORDER=
